<?xml version="1.0" standalone="no"?>
<!DOCTYPE svg PUBLIC "-//W3C//DTD SVG 20010904//EN"
 "http://www.w3.org/TR/2001/REC-SVG-20010904/DTD/svg10.dtd">
<svg version="1.0" xmlns="http://www.w3.org/2000/svg"
 width="1536.000000pt" height="1536.000000pt" viewBox="0 0 1536.000000 1536.000000"
 preserveAspectRatio="xMidYMid meet">
<metadata>
Created by potrace 1.14, written by Peter Selinger 2001-2017
</metadata>
<g transform="translate(0.000000,1536.000000) scale(0.100000,-0.100000)"
fill="#000000" stroke="none">
<path d="M3975 15278 c-56 -122 -144 -318 -143 -321 0 -1 -7 -20 -16 -42 -36
-85 -136 -396 -166 -515 -42 -164 -41 -161 -45 -189 -2 -13 -10 -55 -19 -95
-22 -107 -27 -137 -46 -291 -22 -180 -25 -242 -24 -510 0 -294 5 -377 39 -625
5 -35 42 -248 50 -285 100 -486 314 -1056 587 -1565 149 -279 358 -618 550
-893 30 -43 61 -87 69 -98 7 -12 25 -36 39 -54 14 -18 52 -71 85 -116 48 -66
257 -339 320 -418 50 -61 325 -393 351 -421 17 -19 64 -73 104 -120 40 -47
107 -123 149 -169 42 -46 81 -89 86 -95 43 -48 215 -236 235 -257 14 -15 81
-87 150 -160 254 -270 429 -448 1019 -1034 1506 -1496 1840 -1833 2122 -2136
43 -46 196 -213 224 -243 11 -13 36 -40 56 -62 91 -101 266 -301 325 -374 16
-19 34 -39 40 -45 7 -5 78 -93 159 -195 80 -102 154 -194 163 -205 47 -58 263
-361 349 -491 345 -516 573 -1009 672 -1449 38 -169 54 -307 56 -500 3 -194
-4 -283 -35 -450 -19 -101 -75 -295 -110 -380 -48 -117 -122 -270 -174 -360
l-63 -110 665 -3 c366 -1 670 2 674 6 11 11 94 247 119 341 42 154 80 329 94
441 4 30 9 64 11 75 26 137 25 641 -1 820 -2 17 -6 49 -9 73 -11 88 -36 225
-61 327 -9 39 -18 80 -21 92 -11 56 -80 279 -125 406 -173 481 -430 961 -805
1505 -37 53 -77 109 -88 123 -12 14 -28 36 -36 49 -13 19 -83 114 -107 145 -5
6 -24 30 -43 55 -28 37 -173 220 -240 304 -8 10 -22 26 -30 35 -8 9 -28 33
-43 54 -16 21 -38 48 -50 61 -12 14 -31 35 -41 48 -25 30 -129 152 -136 158
-3 3 -38 43 -79 90 -68 77 -188 212 -251 280 -14 15 -62 67 -106 116 -45 49
-107 116 -139 149 -304 320 -502 521 -1009 1025 -1515 1505 -1814 1806 -2131
2144 -119 127 -185 199 -219 237 -22 24 -62 69 -90 99 -28 30 -78 86 -111 123
-33 38 -69 79 -80 91 -11 12 -42 48 -70 81 -27 32 -55 63 -60 69 -106 111
-535 653 -691 871 -100 140 -239 342 -259 377 -5 10 -43 70 -83 134 -40 63
-85 136 -99 162 -14 26 -29 52 -33 57 -35 46 -234 442 -300 595 -89 208 -201
525 -225 639 -2 9 -13 57 -25 106 -33 140 -56 272 -77 455 -10 83 -9 526 1
605 22 181 63 389 112 565 45 166 147 417 255 630 85 167 92 180 157 283 23
37 42 70 42 72 0 3 24 40 53 82 30 43 57 84 61 91 6 9 -135 12 -692 12 l-699
0 -38 -82z"/>
</g>
</svg>
